<svg xmlns="http://www.w3.org/2000/svg"><symbol id="icon-bag" viewBox="0 0 256 256"><path fill="none" stroke="#383838" stroke-linecap="round" stroke-linejoin="round" stroke-width="10" d="M97.4 72.3h93.5L205 250.5H51L64.1 72.3h18.5"/><path fill="none" stroke="#383838" stroke-linecap="round" stroke-linejoin="round" stroke-width="10" d="M158.6 56.5V35.6A30.6 30.6 0 0 0 128 5a30.6 30.6 0 0 0-30.6 30.6v36.7"/></symbol><symbol id="icon-facebook" viewBox="0 0 256 256"><path fill="#383838" d="M101.9 255.2V139.3H64.1a3.4 3.4 0 0 1-3.4-3.4V94.7a2.1 2.1 0 0 1 2.1-2.1H102l-.5-34.6c0-29.6 19.2-58 43.4-58h46a4.4 4.4 0 0 1 4.4 4.4v39.4l-18.3-.4c-27.5 0-27.9 12.5-27.9 22.5v27.5h39.4a4.4 4.4 0 0 1 4.4 4.4v37.1a4.4 4.4 0 0 1-4.4 4.4h-39V256"/></symbol><symbol id="icon-checkmark" viewBox="0 0 256 256"><path fill="none" stroke="#383838" stroke-linecap="round" stroke-linejoin="round" stroke-width="10" d="M203.2 58.7L190 71.9l-15.5 15.5-70.5 70.5-38.7-38.7a13.4 13.4 0 0 0-18.9 18.9l48.2 48.2a13.4 13.4 0 0 0 18.9 0l121-121.4m0 0a123.1 123.1 0 1 1-15.6-20.7"/></symbol><symbol id="icon-leaf" viewBox="0 0 256 256"><path fill="none" stroke="#383838" stroke-linecap="round" stroke-linejoin="round" stroke-width="10" d="M5.8 250.8L46.6 210C23.8 58.7 140.2 40.7 250.7 5.9 218.4 108.3 203.5 213 80.8 209.4c0-38.8 36.1-98.8 74.9-122.4"/></symbol><symbol id="icon-cart" viewBox="0 0 256 256"><path fill="none" stroke="#383838" stroke-linecap="round" stroke-linejoin="round" stroke-width="10" d="M55.6 217.2a22 22 0 1 0 44.1 0h50.9a22 22 0 1 0 44.1 0l-.2-24.7H57v-34.9h138.6l51.8-119.4H55.9L34.5 16.8H8.6"/></symbol><symbol id="icon-pinterest" viewBox="0 0 256 256"><path fill="#383838" d="M146 .4C63.6.4 30.3 61.2 30.3 103.5c0 36.4 30.7 53.8 34 53.8s11.8-15.7 9.2-22.2C53.2 105 56.8 26.6 145.3 26.6s74 143.2 9.8 143.2c-15.9 0-23.8-10.6-29.3-21.7 2.4-11.6 3.9-19.4 4.4-20.1 2-2.6 28.1-66-5.9-66-38.6 0-34 43.1-28.1 63.4-7.2 24.2-34 116.4-14.4 130.7 16-2 29-44.1 37.6-79.5 8.2 10.6 20.8 18.7 40.2 18.7C261.7 195.2 276.7.4 146 .4z"/></symbol><symbol id="icon-instagram" viewBox="0 0 256 256"><path fill="#383838" d="M128.4 194.9a67.4 67.4 0 1 1 67.4-67.4 67.5 67.5 0 0 1-67.4 67.4zm0-118.9a51.5 51.5 0 1 0 51.5 51.5A51.5 51.5 0 0 0 128.4 76z"/><circle cx="199.1" cy="51.9" r="11" fill="#383838"/><path fill="#383838" d="M187.6 255.1H69.2A68.5 68.5 0 0 1 .8 186.7V68.3A68.5 68.5 0 0 1 69.2-.1h118.4A68.5 68.5 0 0 1 256 68.3v118.4a68.5 68.5 0 0 1-68.4 68.4zM69.2 15.8a52.6 52.6 0 0 0-52.5 52.5v118.4a52.6 52.6 0 0 0 52.5 52.5h118.4a52.6 52.6 0 0 0 52.5-52.5V68.3a52.6 52.6 0 0 0-52.5-52.5z"/></symbol><symbol id="icon-maple-leaf" viewBox="0 0 256 256"><path fill="none" stroke="#383838" stroke-linecap="round" stroke-linejoin="round" stroke-width="10" d="M144.8 195.3l44.9 3.2-4.4-21 56.3-47.1-14.1-8L238 82.9l-35 7.7-6.9-17.4-30.2 31.4 7.7-67.2L153 47.5 128 5.6l-25 41.9-20.6-10.1 7.7 67.2-30.2-31.4L53 90.6l-35-7.7 10.5 39.5-14.1 8 56.3 47.1-4.4 21 56.8-4.1v56"/></symbol><symbol id="icon-twitter" viewBox="0 0 256 256"><path fill="#383838" d="M255.9 48.4c-5.6 3.5-18.7 6.6-29.6 7.6 13.9-7.1 19.5-20.2 22.5-28.8-8.7 5.4-25 11.2-32.8 12.7a52.6 52.6 0 0 0-89.3 49.3c-52.5-2.2-103-43.7-110.4-56C2.1 57 12.2 92.4 31.9 104c-8.1 0-17.7-2.5-22.7-5.6.5 22.2 15.7 46 42 51.6-3 .5-13.1 4.5-22.2 1 2 18.7 29.3 35.4 47 36.9C44.1 213.2 9.2 210.1.1 210.1c11.6 9.6 46.5 22.7 81.9 22.7 103.6 0 148.1-89.5 148.1-157.2 10.3-6.2 23-22.5 25.8-27.2z"/></symbol></svg>