<svg xmlns="http://www.w3.org/2000/svg"><symbol id="icon-checkmark" viewBox="0 0 256 256"><path d="M238.8 62.4a.1.1 0 0 0-.1-.1l-.3-.4-.3-.4a.1.1 0 0 0-.1-.1l-.2-.2-.5-.4-.4-.2-.4-.2-.5-.2h-3.2l-.6.3h-.3a1 1 0 0 0-.5.4l-.3.2a.1.1 0 0 0-.1.1L109.9 182.8a8.5 8.5 0 0 1-11.8 0l-48.2-48.2a8.5 8.5 0 0 1 0-11.8 8.3 8.3 0 0 1 5.9-2.5 8 8 0 0 1 5.9 2.5l38.8 38.7a5 5 0 0 0 7 0l99.2-99.2a5 5 0 0 0 0-7.1 4.8 4.8 0 0 0-7 0L104 150.9l-35.2-35.2a18.3 18.3 0 0 0-26 0 18.6 18.6 0 0 0 0 26L91 189.8a18.3 18.3 0 0 0 26 0L233.4 73.1A117.9 117.9 0 1 1 11 127.9c0-65 52.9-118 117.9-118a118.7 118.7 0 0 1 86.4 37.7 5 5 0 0 0 7 .3 5 5 0 0 0 .3-7.1A128.2 128.2 0 0 0 128.9-.1C58.3-.1 1 57.3 1 127.9a128 128 0 0 0 127.9 127.9c70.5 0 127.9-57.4 127.9-127.9a127.6 127.6 0 0 0-18-65.5z"/></symbol><symbol id="twitter" viewBox="0 0 256 256"><path d="M128 0a128 128 0 1 0 128 128A128 128 0 0 0 128 0zm62.3 96c0 41.3-27.2 95.9-90.4 95.9-21.5 0-42.8-8-49.9-13.9 5.5 0 26.8 1.8 46.2-13.6-10.7-.9-27.4-11.1-28.6-22.5 5.5 2.2 11.7-.3 13.5-.6-16-3.4-25.2-17.9-25.6-31.4a31.6 31.6 0 0 0 13.9 3.4c-12-7.1-18.2-28.7-9.5-43.2 4.5 7.5 35.3 32.8 67.3 34.2a33.1 33.1 0 0 1-1-8.3 32 32 0 0 1 55.5-21.8c4.7-1 14.6-4.5 20-7.8-1.9 5.2-5.3 13.3-13.8 17.6 6.7-.6 14.7-2.5 18.1-4.7-1.7 3-9.4 13-15.7 16.7z"/></symbol><symbol id="icon-cart" viewBox="0 0 256 256"><path d="M172.7 244.2a27 27 0 0 1-26.6-22h-41.9a27 27 0 0 1-53.6-5 5 5 0 0 1 5-5 5 5 0 0 1 5 5 17.1 17.1 0 0 0 34.1 0 5 5 0 0 1 5-5h50.9a5 5 0 0 1 5 5 17.1 17.1 0 0 0 34.1 0l-.2-19.7H57a5 5 0 0 1-5-5v-34.9a5 5 0 0 1 5-5h135.3l47.5-109.4H55.9a4.7 4.7 0 0 1-3.5-1.5l-20-19.9H8.6a5 5 0 0 1-5-5 5 5 0 0 1 5-5h25.9a4.7 4.7 0 0 1 3.5 1.5l20 19.9h189.4a5 5 0 0 1 4.2 2.2 5.1 5.1 0 0 1 .4 4.8l-51.8 119.4a5.1 5.1 0 0 1-4.6 3H62v24.9h132.5a5.1 5.1 0 0 1 5 5l.2 24.6a27 27 0 0 1-27 27.1z"/></symbol><symbol id="facebook" viewBox="0 0 256 256"><path d="M128 0a128 128 0 1 0 128 128A128 128 0 0 0 128 0zm35.8 83.3L154 83c-14.6 0-14.8 6.7-14.8 12v14.6h20.9a2.3 2.3 0 0 1 2.3 2.4v19.6a2.3 2.3 0 0 1-2.3 2.4h-20.7v62l-25.2-.4V134H94a1.8 1.8 0 0 1-1.8-1.8v-21.9a1.1 1.1 0 0 1 1.1-1.1h20.9l-.3-18.4c0-15.7 10.2-30.8 23.1-30.8h24.4a2.3 2.3 0 0 1 2.4 2.3z"/></symbol><symbol id="icon-leaf" viewBox="0 0 256 256"><path d="M5.8 255.8a4.9 4.9 0 0 1-3.5-1.5 5 5 0 0 1 0-7.1l39-39c-4.7-32.6-3.1-60 4.7-83.7 7.3-21.9 19.8-40.1 38.4-55.6 33.9-28.5 82-42.8 132.9-58.1 10.5-3.1 21.3-6.3 31.9-9.7a4.9 4.9 0 0 1 5 1.3 4.9 4.9 0 0 1 1.2 5c-3.6 11.7-7.1 23.5-10.5 35-26.1 88.5-50.8 172.1-158 172.1h-6.3a5 5 0 0 1-4.8-5c0-40.9 37.6-102.5 77.3-126.7a5 5 0 1 1 5.2 8.6c-35 21.3-69.4 75.8-72.3 113.2h.9c99.7 0 122.3-76.6 148.4-164.9q3.8-12.9 7.8-26.1l-22.9 6.9c-49.9 14.9-97 29-129.4 56.1-35.9 30.1-48.4 72.2-39.3 132.7a5.1 5.1 0 0 1-1.4 4.3L9.3 254.3a4.7 4.7 0 0 1-3.5 1.5z"/></symbol><symbol id="icon-maple-leaf" viewBox="0 0 256 256"><path d="M123.1 255.4a5 5 0 0 1-5-5v-50.6l-51.4 3.6a4.9 4.9 0 0 1-4.2-1.7 5 5 0 0 1-1.1-4.3l3.8-18-54-45.2a4.9 4.9 0 0 1 .7-8.1l10.8-6.2-9.5-35.7a5 5 0 0 1 1.2-4.8 5.1 5.1 0 0 1 4.7-1.4l30.8 6.8 5.3-13.4a5.3 5.3 0 0 1 3.7-3.1 5 5 0 0 1 4.6 1.5l19.9 20.7L77.5 38a5.1 5.1 0 0 1 2-4.7 5.2 5.2 0 0 1 5.1-.4L101 41l22.7-38a5.1 5.1 0 0 1 8.6 0L155 41l16.4-8.1a5.2 5.2 0 0 1 5.1.4 5.1 5.1 0 0 1 2 4.7l-5.9 52.5 19.9-20.7a5 5 0 0 1 4.6-1.5 5.3 5.3 0 0 1 3.7 3.1l5.3 13.4 30.8-6.8a5.1 5.1 0 0 1 4.7 1.4 5 5 0 0 1 1.2 4.8l-9.5 35.7 10.8 6.2a4.9 4.9 0 0 1 .7 8.1l-54 45.2 3.8 18a5 5 0 0 1-1.1 4.3 4.9 4.9 0 0 1-4.2 1.7l-44.9-3.1a5 5 0 0 1 .8-10l38.2 2.7-3-14.4a5 5 0 0 1 1.6-4.9l50.9-42.5-7.9-4.5a5 5 0 0 1-2.3-5.6l8.4-31.6-27.1 5.9a4.8 4.8 0 0 1-5.7-3l-4-10.1-24.8 25.8a4.9 4.9 0 0 1-5.7 1.1 5 5 0 0 1-2.8-5.1l6.6-58.2-12.4 6.1a4.9 4.9 0 0 1-6.4-2L128 15.3 107.2 50a4.9 4.9 0 0 1-6.4 2l-12.4-6.1 6.6 58.2a5 5 0 0 1-2.8 5.1 4.9 4.9 0 0 1-5.7-1.1L61.7 82.3l-4 10.1a4.8 4.8 0 0 1-5.7 3l-27.1-5.9 8.4 31.6a5 5 0 0 1-2.3 5.6l-7.9 4.5L74 173.7a5 5 0 0 1 1.6 4.9l-3 14.4 50.1-3.6a4.9 4.9 0 0 1 3.8 1.4 4.8 4.8 0 0 1 1.6 3.6v56a5 5 0 0 1-5 5z"/></symbol><symbol id="icon-bag" viewBox="0 0 256 256"><path d="M195.8 71.9a4.9 4.9 0 0 0-4.9-4.6h-88.5V35.6a25.6 25.6 0 0 1 51.2 0v20.9a5.1 5.1 0 0 0 5 5 5 5 0 0 0 5-5V35.6a35.6 35.6 0 0 0-71.2 0v36.7a5 5 0 0 0 5 5h88.8l13.4 168.2H56.4L68.7 77.3h13.9a5 5 0 0 0 5-5 5 5 0 0 0-5-5H64.1a5 5 0 0 0-5 4.6L46 250.1a5 5 0 0 0 5 5.4h154a5.2 5.2 0 0 0 3.7-1.6 5.3 5.3 0 0 0 1.3-3.8z"/></symbol><symbol id="instagram" viewBox="0 0 256 256"><path d="M159.4 68.8H96.6a27.9 27.9 0 0 0-27.8 27.8v62.8a27.9 27.9 0 0 0 27.8 27.8h62.8a27.9 27.9 0 0 0 27.8-27.8V96.6a27.9 27.9 0 0 0-27.8-27.8zM128 163.7a35.7 35.7 0 1 1 35.7-35.7 35.7 35.7 0 0 1-35.7 35.7zm37.5-70a5.8 5.8 0 1 1 5.8-5.8 5.8 5.8 0 0 1-5.8 5.8z"/><path d="M128 0a128 128 0 1 0 128 128A128 128 0 0 0 128 0zm67.6 159.4a36.3 36.3 0 0 1-36.2 36.2H96.6a36.3 36.3 0 0 1-36.2-36.2V96.6a36.3 36.3 0 0 1 36.2-36.2h62.8a36.3 36.3 0 0 1 36.2 36.2z"/><path d="M128 100.7a27.3 27.3 0 1 0 27.3 27.3 27.4 27.4 0 0 0-27.3-27.3z"/></symbol><symbol id="pinterest" viewBox="0 0 256 256"><path d="M128 0a128 128 0 1 0 128 128A128 128 0 0 0 128 0zm13 163.6c-10.3 0-17-4.3-21.3-9.9-4.6 18.7-11.5 41-20 42.1-10.4-7.6 3.8-56.5 7.7-69.4-3.2-10.7-5.6-33.6 14.9-33.6 18 0 4.1 33.6 3.1 35s-1.1 4.6-2.3 10.7c2.8 5.9 7.1 11.5 15.5 11.5 34 0 41.8-75.9-5.2-75.9s-48.9 41.6-38.2 57.5c1.4 3.5-3.1 11.8-4.8 11.8s-18.1-9.2-18.1-28.5c0-22.5 17.7-54.7 61.4-54.7 69.4 0 61.4 103.4 7.3 103.4z"/></symbol></svg>
