<svg id="Layer_1" data-name="Layer 1" xmlns="http://www.w3.org/2000/svg" width="256" height="27.7" viewBox="0 0 256 27.7"><title>logo-256 copy 2ff</title><path d="M16.2,8.2a7,7,0,0,1-2.6,5.9c-1.8,1.4-4.3,2.1-7.6,2.1H1.9V27.3H0V.4H6.6Q16.2.4,16.2,8.2ZM1.9,14.6H5.6q4.5,0,6.6-1.5c1.3-1,2-2.6,2-4.9a5.8,5.8,0,0,0-1.9-4.6q-2-1.5-6-1.5H1.9Z" fill="#231f20"/><path d="M44.7,13.8c0,4.3-1.1,7.7-3.2,10.2s-5.1,3.7-8.8,3.7A11.1,11.1,0,0,1,23.8,24c-2.1-2.5-3.2-5.9-3.2-10.2s1.1-7.6,3.3-10.1S29,0,32.7,0s6.7,1.2,8.8,3.7S44.7,9.6,44.7,13.8Zm-22,0c0,3.9.8,6.9,2.6,9s4.1,3.1,7.4,3.1,5.7-1,7.4-3.1,2.6-5.1,2.6-9S41.8,7,40.1,4.9a9.3,9.3,0,0,0-7.4-3.1A9,9,0,0,0,25.3,5C23.5,7,22.7,10,22.7,13.8Z" fill="#231f20"/><path d="M50.9,27.3V.4h1.9V25.6H65.6v1.7Z" fill="#231f20"/><path d="M70.2,27.3V.4h1.9V27.3Z" fill="#231f20"/><path d="M86.8,27.3H84.9V2.2H76.1V.4H95.5V2.2H86.8Z" fill="#231f20"/><path d="M114.2,27.3H99.5V.4h14.7V2.2H101.4V12.3h12.1v1.8H101.4V25.6h12.8Z" fill="#231f20"/><path d="M120.3,27.3V.4h1.9V25.6H135v1.7Z" fill="#231f20"/><path d="M145.9,15.2,153.7.4h2.1l-9,16.5V27.3h-1.9V17.1L135.9.4H138Z" fill="#231f20"/><path d="M164.9,17V27.3h-5.7V.4H167c3.7,0,6.4.7,8.1,2a7.2,7.2,0,0,1,2.7,6.1,7.5,7.5,0,0,1-1.3,4.2,8.3,8.3,0,0,1-3.7,2.9c4,6.1,6.6,10,7.9,11.7h-6.4L167.9,17Zm0-4.6h1.8a7,7,0,0,0,4-.9A3.2,3.2,0,0,0,172,8.6a3,3,0,0,0-1.3-2.7,8.7,8.7,0,0,0-4.1-.8h-1.7Z" fill="#ffc50c"/><path d="M206,.4V17.8a10.2,10.2,0,0,1-1.4,5.3,7.9,7.9,0,0,1-3.8,3.4,14,14,0,0,1-6,1.2,11.7,11.7,0,0,1-8-2.6,9.2,9.2,0,0,1-2.9-7.3V.4h5.7V16.9a7.2,7.2,0,0,0,1.2,4.6,5.6,5.6,0,0,0,4.2,1.4,5.2,5.2,0,0,0,4-1.4c.9-1,1.3-2.5,1.3-4.6V.4Z" fill="#ffc50c"/><path d="M234.9,13.6c0,4.5-1.2,7.9-3.8,10.2s-6.1,3.5-10.9,3.5h-7.6V.4H221c4.4,0,7.8,1.2,10.3,3.5S234.9,9.5,234.9,13.6Zm-5.9.2c0-5.8-2.6-8.7-7.7-8.7h-3V22.6h2.4C226.2,22.6,229,19.7,229,13.8Z" fill="#ffc50c"/><path d="M256,27.3H240.5V.4H256V5.1h-9.8V11h9.1v4.7h-9.1v6.9H256Z" fill="#ffc50c"/></svg>