<svg xmlns="http://www.w3.org/2000/svg" width="256" height="256" viewBox="0 0 256 256"><path fill="#231f20" d="M16.2 122.5a7.2 7.2 0 0 1-2.7 6q-2.7 2.1-7.5 2.1H1.9v11.1H0v-27h6.6q9.6 0 9.6 7.8zm-14.3 6.4h3.7q4.5 0 6.6-1.5t2-4.9a5.5 5.5 0 0 0-1.9-4.6q-1.9-1.5-5.9-1.5H1.9zm42.8-.7q0 6.4-3.2 10.1a11 11 0 0 1-8.8 3.7 11 11 0 0 1-8.8-3.7q-3.2-3.7-3.2-10.2t3.2-10.1a11.1 11.1 0 0 1 8.8-3.7 11 11 0 0 1 8.8 3.7q3.2 3.7 3.2 10.2zm-22 0q0 5.8 2.6 8.9a9 9 0 0 0 7.4 3.2q4.9 0 7.4-3.1t2.6-9q0-5.8-2.6-8.9a9.1 9.1 0 0 0-7.4-3.1 9.1 9.1 0 0 0-7.4 3.1q-2.6 3.1-2.6 8.9zm28.2 13.5v-27h1.9v25.2h12.8v1.8zm19.3 0v-27h1.9v26.9zm16.6 0h-1.9v-25.2h-8.8v-1.8h19.4v1.8h-8.7zm27.4 0H99.5v-27h14.7v1.7h-12.8v10.2h12.1v1.7h-12.1v11.5h12.8zm6.1 0v-27h1.9v25.2H135v1.8zm25.6-12.2l7.9-14.7h2l-9 16.5v10.4h-1.9v-10.3l-9-16.7h2.1z"/><path fill="#ffc50c" d="M164.9 131.3v10.3h-5.7v-26.9h7.8q5.5 0 8.1 2a8 8 0 0 1 1.3 10.3 8.7 8.7 0 0 1-3.7 2.9l7.9 11.7h-6.3l-6.4-10.3zm0-4.6h1.8a7 7 0 0 0 4-.9 3.2 3.2 0 0 0 1.3-2.8 2.9 2.9 0 0 0-1.3-2.7 8 8 0 0 0-4.1-.8h-1.7zm41.1-12v17.4a10 10 0 0 1-1.3 5.2 8.7 8.7 0 0 1-3.9 3.4 13.8 13.8 0 0 1-6 1.2q-5.2 0-8.1-2.7a9.4 9.4 0 0 1-2.9-7.3v-17.2h5.7v16.5a6.9 6.9 0 0 0 1.3 4.6q1.3 1.5 4.1 1.5a5.1 5.1 0 0 0 4.1-1.5 6.9 6.9 0 0 0 1.3-4.6v-16.5zm28.9 13.3q0 6.6-3.8 10.2t-10.9 3.5h-7.6v-27h8.4q6.6 0 10.2 3.5t3.7 9.8zm-5.9.1q0-8.7-7.7-8.7h-3V137h2.4q8.3 0 8.3-8.9zm27 13.6h-15.5v-27H256v4.7h-9.8v5.9h9.1v4.7h-9.1v7h9.8z"/></svg>