<svg xmlns="http://www.w3.org/2000/svg" width="16" height="16" viewBox="0 0 16 16"><path fill="#231f20" d="M1 7.8a.4.4 0 0 1-.2.4H.1V9H0V7.3h.4q.6 0 .6.5zm-.9.4h.7a.4.4 0 0 0 .1-.3.3.3 0 0 0-.1-.3H.1zm2.7 0a.9.9 0 0 1-.2.6l-.6.3-.6-.2a.9.9 0 0 1-.2-.6.9.9 0 0 1 .2-.6l.6-.4.6.2a.9.9 0 0 1 .2.7zm-1.4 0a.9.9 0 0 0 .2.6l.5.2.5-.2a.9.9 0 0 0 .2-.6.9.9 0 0 0-.2-.6L2 7.4l-.5.2a.8.8 0 0 0-.1.6zm1.8.8V7.3h.1v1.6h-.1zm1.2 0V7.3h.1V9zm1 0h-.1V7.5h.1zm1.7 0h-.9V7.3h.1v1.3h.8zm.4 0V7.3h.1v1.6h-.1zm1.6-.7l.5-.9h.1l-.6 1V9v-.6l-.6-1h.1z"/><path fill="#ffc50c" d="M10.3 8.4V9h-.4V7.3h1a.4.4 0 0 1 .2.4V8l-.2.2.5.7H11l-.4-.6zm0-.3h.4v-.4h-.4zm2.6-.8v1.1a.6.6 0 0 1-.1.3l-.2.2h-.4l-.5-.2a.6.6 0 0 1-.2-.5v-.9h.4v1a.4.4 0 0 0 .1.3h.5a.4.4 0 0 0 .1-.3v-1zm1.8.9a.8.8 0 0 1-.2.6l-.7.2h-.5V7.3h.5l.6.2a.8.8 0 0 1 .3.7zm-.4 0q0-.5-.5-.5h-.2v1h.2q.5 0 .5-.5zM16 9h-1V7.3h1v.3h-.6V8h.6v.3h-.6v.4h.6z"/></svg>