<svg xmlns="http://www.w3.org/2000/svg" width="32" height="32" viewBox="0 0 32 32"><path fill="#231f20" d="M2 15.5a.9.9 0 0 1-.3.7 1.5 1.5 0 0 1-.9.3H.2v1.4H0v-3.4h.8q1.2 0 1.2 1zm-1.8.8h.5l.8-.2a.7.7 0 0 0 .3-.6.7.7 0 0 0-.2-.6l-.7-.2H.2zm5.4-.1a1.9 1.9 0 0 1-.4 1.3 1.4 1.4 0 0 1-1.1.5 1.4 1.4 0 0 1-1.1-.5 1.9 1.9 0 0 1-.4-1.3 1.9 1.9 0 0 1 .4-1.3 1.4 1.4 0 0 1 1.1-.5 1.4 1.4 0 0 1 1.1.5 1.9 1.9 0 0 1 .4 1.3zm-2.8 0a1.7 1.7 0 0 0 .3 1.1 1.1 1.1 0 0 0 .9.4 1.1 1.1 0 0 0 .9-.4 1.7 1.7 0 0 0 .3-1.1 1.7 1.7 0 0 0-.2-1.1 1.1 1.1 0 0 0-.9-.4 1.1 1.1 0 0 0-.9.4 1.7 1.7 0 0 0-.4 1.1zm3.6 1.7v-3.4h.2v3.1h1.6v.2zm2.4 0v-3.4H9v3.4zm2 0h-.2v-3.2H9.5v-.2h2.4v.2h-1.1zm3.5 0h-1.9v-3.4h1.8v.2h-1.5V16h1.5v.2h-1.5v1.4h1.6zm.7 0v-3.4h.2v3.1h1.6v.2zm3.2-1.6l1-1.8h.3l-1.1 2.1v1.3h-.2v-1.3L17 14.5h.3z"/><path fill="#ffc50c" d="M20.6 16.6v1.3h-.7v-3.4h1a1.7 1.7 0 0 1 1 .2 1 1 0 0 1 .2 1.3l-.5.4 1 1.5h-.8l-.8-1.3zm0-.6h.7a.4.4 0 0 0 .2-.4.4.4 0 0 0-.2-.3h-.7zm5.1-1.5v2.2a1.3 1.3 0 0 1-.2.7l-.5.4h-.7a1.4 1.4 0 0 1-1-.3 1.2 1.2 0 0 1-.4-.9v-2.1h.7v2.1a.9.9 0 0 0 .2.6l.5.2.5-.2a.9.9 0 0 0 .2-.6v-2.1zm3.7 1.7a1.7 1.7 0 0 1-.5 1.3 1.9 1.9 0 0 1-1.4.4h-1v-3.4h1.1a1.8 1.8 0 0 1 1.3.4 1.6 1.6 0 0 1 .5 1.3zm-.7 0q0-1.1-1-1.1h-.4v2.2h.3q1 0 1-1.1zm3.3 1.7h-1.9v-3.4H32v.6h-1.2v.7h1.1v.6h-1.1v.9H32z"/></svg>