<svg xmlns="http://www.w3.org/2000/svg" width="64" height="64" viewBox="0 0 64 64"><path fill="#231f20" d="M4.1 30.8a1.8 1.8 0 0 1-.7 1.5 3 3 0 0 1-1.9.5h-1v2.8H0v-6.8h1.6q2.5 0 2.5 2zM.5 32.4h.9A2.8 2.8 0 0 0 3 32a1.4 1.4 0 0 0 .5-1.2 1.4 1.4 0 0 0-.5-1.2 2.4 2.4 0 0 0-1.5-.4h-1zm10.7-.2a3.8 3.8 0 0 1-.8 2.5 2.8 2.8 0 0 1-2.2.9 2.8 2.8 0 0 1-2.2-.9 3.8 3.8 0 0 1-.8-2.5 3.7 3.7 0 0 1 .8-2.6 2.8 2.8 0 0 1 2.2-.9 2.8 2.8 0 0 1 2.2.9 3.8 3.8 0 0 1 .8 2.6zm-5.5 0a3.4 3.4 0 0 0 .6 2.2 2.3 2.3 0 0 0 1.9.8 2.3 2.3 0 0 0 1.9-.8 3.5 3.5 0 0 0 .6-2.2A3.4 3.4 0 0 0 10 30a2.3 2.3 0 0 0-1.8-.8 2.3 2.3 0 0 0-1.9.8 3.4 3.4 0 0 0-.6 2.2zm7 3.4v-6.8h.5v6.3h3.2v.4zm4.9 0v-6.8h.4v6.7zm4.1 0h-.5v-6.3H19v-.4h4.8v.4h-2.1zm6.9 0h-3.7v-6.8h3.7v.4h-3.3v2.5h3v.4h-3V35h3.2zm1.5 0v-6.8h.5v6.3h3.2v.4zm6.4-3.1l2-3.7h.5L36.7 33v2.6h-.5V33L34 28.8h.5z"/><path fill="#ffc50c" d="M41.2 33v2.6h-1.4v-6.8h2a3.4 3.4 0 0 1 2 .5 2 2 0 0 1 .3 2.6 2.2 2.2 0 0 1-.9.7l2 2.9h-1.6L42 33zm0-1.2h.5a1.8 1.8 0 0 0 1-.2.8.8 0 0 0 .3-.7.7.7 0 0 0-.3-.7l-1-.2h-.4zm10.3-3v4.4a2.5 2.5 0 0 1-.3 1.3 2.2 2.2 0 0 1-1 .9 3.4 3.4 0 0 1-1.5.3 2.9 2.9 0 0 1-2-.7 2.4 2.4 0 0 1-.7-1.8v-4.4h1.4v4.1a1.7 1.7 0 0 0 .3 1.1 1.3 1.3 0 0 0 1 .4 1.3 1.3 0 0 0 1-.4 1.7 1.7 0 0 0 .3-1.1v-4.1zm7.2 3.3a3.3 3.3 0 0 1-.9 2.5 3.9 3.9 0 0 1-2.7.9h-2v-6.7h2.1a3.6 3.6 0 0 1 2.6.9 3.2 3.2 0 0 1 .9 2.4zm-1.5 0q0-2.2-1.9-2.2h-.8v4.4h.6q2.1.1 2.1-2.1zm6.8 3.5h-3.9v-6.8H64V30h-2.4v1.5h2.3v1.2h-2.3v1.7H64z"/></svg>